<?xml version="1.0" encoding="iso-8859-1"?>
<!-- Generator: Adobe Illustrator 19.0.0, SVG Export Plug-In . SVG Version: 6.00 Build 0)  -->
<svg version="1.1" id="Layer_1" xmlns="http://www.w3.org/2000/svg" xmlns:xlink="http://www.w3.org/1999/xlink" x="0px" y="0px"
	 viewBox="0 0 512 512" style="enable-background:new 0 0 512 512;" xml:space="preserve">
<path style="fill:#F7A872;" d="M0,424.198V87.802c0-16.05,13.012-29.063,29.063-29.063h453.875c16.05,0,29.063,13.012,29.063,29.063
	v336.396c0,16.05-13.012,29.063-29.063,29.063H29.063C13.012,453.261,0,440.249,0,424.198z"/>
<rect x="35.07" y="93.812" style="fill:#999999;" width="441.859" height="324.386"/>
<rect x="453.56" y="93.812" style="fill:#808080;" width="23.365" height="324.386"/>
<path style="fill:#E09461;" d="M476.93,425.789H35.07c-4.197,0-7.599-3.402-7.599-7.599V93.808c0-4.197,3.402-7.599,7.599-7.599
	h441.86c4.197,0,7.598,3.402,7.598,7.599v324.381C484.528,422.387,481.127,425.789,476.93,425.789z M42.669,410.592h426.663V101.407
	H42.669V410.592z"/>
<g>
	<path style="fill:#F2F2F2;" d="M134.946,310.254l-35.474,8.868l-7.43-39.177l30.34-8.091c3.432-0.915,5.471-4.439,4.556-7.869
		c-0.915-3.432-4.445-5.469-7.869-4.556l-29.43,7.849l-6.961-36.703l35.597-5.933c3.502-0.585,5.87-3.896,5.285-7.4
		c-0.585-3.503-3.904-5.866-7.399-5.285l-42.082,7.014c-1.707,0.285-3.226,1.245-4.215,2.664c-0.99,1.418-1.367,3.176-1.044,4.876
		l19.287,101.698c0.328,1.738,1.361,3.264,2.851,4.218c1.044,0.668,2.248,1.014,3.465,1.014c0.521,0,1.045-0.063,1.559-0.192
		l42.082-10.521c3.445-0.862,5.539-4.352,4.678-7.797C141.882,311.488,138.387,309.394,134.946,310.254z"/>
	<path style="fill:#F2F2F2;" d="M154.031,262.431c0.379,0,0.761-0.034,1.147-0.103l43.835-7.891
		c3.494-0.629,5.818-3.972,5.188-7.466c-0.629-3.496-3.975-5.817-7.468-5.189l-43.835,7.891c-3.494,0.629-5.818,3.972-5.188,7.466
		C148.271,260.248,150.98,262.431,154.031,262.431z"/>
	<path style="fill:#F2F2F2;" d="M202.581,271.59l-43.835,7.891c-3.494,0.629-5.818,3.972-5.188,7.468
		c0.56,3.11,3.269,5.291,6.32,5.291c0.379,0,0.762-0.034,1.147-0.103l43.835-7.891c3.494-0.629,5.818-3.972,5.188-7.468
		C209.418,273.281,206.06,270.964,202.581,271.59z"/>
	<path style="fill:#F2F2F2;" d="M235.339,298.795c0.521,3.147,3.246,5.379,6.335,5.379c0.35,0,0.705-0.028,1.06-0.088
		c3.502-0.581,5.871-3.893,5.29-7.395l-8.047-48.501c-0.673-4.063,0.274-8.146,2.671-11.496c2.396-3.35,5.954-5.567,10.017-6.24
		c8.382-1.39,16.344,4.301,17.737,12.688l8.047,48.499c0.581,3.503,3.89,5.872,7.395,5.29c3.147-0.523,5.379-3.247,5.379-6.336
		c0-0.35-0.028-0.703-0.088-1.059l-8.047-48.501c-0.674-4.063,0.274-8.146,2.67-11.495c2.396-3.35,5.955-5.567,10.018-6.241
		c8.379-1.391,16.344,4.301,17.736,12.688l8.047,48.501c0.58,3.502,3.887,5.875,7.395,5.29c3.502-0.581,5.871-3.893,5.29-7.395
		l-8.047-48.501c-1.237-7.452-5.3-13.977-11.443-18.371c-6.144-4.397-13.629-6.136-21.083-4.898
		c-7.452,1.237-13.977,5.3-18.372,11.445c-0.541,0.756-1.043,1.534-1.502,2.329c-6.154-5.372-14.574-8.057-23.237-6.62
		c-7.451,1.237-13.975,5.3-18.371,11.445c-4.395,6.144-6.135,13.631-4.898,21.083L235.339,298.795z"/>
	<path style="fill:#F2F2F2;" d="M368.347,277.535c5.436,2.6,11.262,3.909,17.115,3.909c4.457,0,8.934-0.76,13.261-2.289
		c10.01-3.534,18.046-10.756,22.625-20.334c1.533-3.204,0.177-7.042-3.028-8.573c-3.203-1.533-7.041-0.177-8.573,3.027
		c-3.098,6.479-8.534,11.364-15.305,13.754c-6.772,2.392-14.069,2.001-20.549-1.097c-13.373-6.394-19.052-22.479-12.658-35.852
		c3.098-6.479,8.534-11.364,15.305-13.756c6.772-2.391,14.069-2.001,20.549,1.097c3.203,1.534,7.042,0.175,8.573-3.027
		c1.533-3.204,0.177-7.042-3.028-8.573c-19.772-9.454-43.548-1.058-53,18.713C340.183,244.308,348.576,268.083,368.347,277.535z"/>
	<path style="fill:#F2F2F2;" d="M454.285,185.775c-0.924-3.429-4.454-5.459-7.881-4.535l-15.276,4.117l4.827-12.442
		c4.008-10.332,4.602-21.449,1.72-32.151c-3.052-11.321-14.745-18.048-26.065-14.997c-11.321,3.051-18.047,14.742-14.997,26.063
		c0.924,3.426,4.449,5.458,7.88,4.535c3.43-0.923,5.459-4.453,4.536-7.881c-1.205-4.474,1.453-9.095,5.928-10.301
		c4.477-1.208,9.096,1.454,10.302,5.927c2.166,8.039,1.72,16.392-1.292,24.154l-9.419,24.279c-0.877,2.26-0.408,4.82,1.212,6.622
		c1.237,1.377,2.983,2.133,4.782,2.132c0.558,0,1.12-0.072,1.674-0.221l27.537-7.421
		C453.179,192.733,455.209,189.203,454.285,185.775z"/>
	<path style="fill:#F2F2F2;" d="M427.508,306.927c-81.082,0-152.462,16.035-198.065,29.488
		c-49.478,14.595-79.379,29.002-80.628,29.608c-3.194,1.551-4.526,5.397-2.976,8.592c1.112,2.29,3.403,3.624,5.789,3.624
		c0.942,0,1.898-0.208,2.803-0.648c1.191-0.579,120.837-57.805,273.076-57.805c3.55,0,6.43-2.878,6.43-6.43
		S431.058,306.927,427.508,306.927z"/>
</g>
<g>
</g>
<g>
</g>
<g>
</g>
<g>
</g>
<g>
</g>
<g>
</g>
<g>
</g>
<g>
</g>
<g>
</g>
<g>
</g>
<g>
</g>
<g>
</g>
<g>
</g>
<g>
</g>
<g>
</g>
</svg>
